<?xml version="1.0" encoding="utf-8"?>
<svg version="1.1" id="Layer_1" x="0px" y="0px" viewBox="0 0 100 100" style="enable-background:new 0 0 100 100;" xmlns="http://www.w3.org/2000/svg">
  <g>
    <path d="M86.7,0H13.3C5.9,0,0,5.9,0,13.3v73.5C0,94.1,5.9,100,13.3,100h73.5c7.3,0,13.3-5.9,13.3-13.3V13.3C100,5.9,94.1,0,86.7,0z
		 M97.4,86.7c0,5.9-4.8,10.6-10.6,10.6H13.3c-5.9,0-10.6-4.8-10.6-10.6V13.3c0-5.9,4.8-10.6,10.6-10.6h73.5
		c5.9,0,10.6,4.8,10.6,10.6V86.7z"></path>
    <path d="M 70.7 25.5 L 29.5 25.5 C 26.1 25.5 23.3 28.3 23.3 31.7 L 23.3 65.6 C 23.3 69 26.1 71.8 29.5 71.8 C 32.9 71.8 70.7 71.744 70.7 71.744 C 74.1 71.744 76.9 68.944 76.9 65.544 L 76.9 31.7 C 76.8 28.3 74.1 25.5 70.7 25.5 Z M 74.2 65.544 C 74.2 67.444 72.6 69.044 70.7 69.044 C 70.7 69.044 31.4 69.1 29.5 69.1 C 27.6 69.1 26 67.5 26 65.6 L 26 31.7 C 26 29.8 27.6 28.2 29.5 28.2 L 70.7 28.2 C 72.6 28.2 74.2 29.8 74.2 31.7 L 74.2 65.544 Z"></path>
    <polygon points="33.6 42.9 35.9 42.9 35.9 40.3 40.9 40.3 35.4 54.7 37.9 54.7 43.4 40.3 43.4 38.2 33.6 38.2"></polygon>
    <path d="M 54.5 44.5 C 54.7 44 54.9 43.4 54.9 42.7 C 54.9 41.3 54.5 40.2 53.6 39.3 C 52.7 38.5 51.6 38 50.2 38 C 48.8 38 47.7 38.4 46.8 39.3 C 45.9 40.2 45.5 41.3 45.5 42.7 L 47.9 42.7 C 47.9 41.8 48.1 41.2 48.6 40.8 C 49.1 40.4 49.6 40.2 50.3 40.2 C 51.1 40.2 51.6 40.4 52.1 40.9 C 52.5 41.4 52.7 42 52.7 42.7 C 52.7 43.5 52.4 44.2 51.8 44.9 L 45.5 52.6 L 45.5 54.7 L 55.1 54.7 L 55.1 52.6 L 48.4 52.6 L 53.5 46.3 C 53.9 45.6 54.3 45 54.5 44.5 Z"></path>
    <path d="M 64.7 46.2 C 66 45.4 66.7 44.2 66.7 42.7 C 66.7 41.3 66.2 40.2 65.3 39.4 C 64.4 38.6 63.2 38.1 61.9 38.1 C 60.6 38.1 59.4 38.5 58.5 39.4 C 57.6 40.2 57.1 41.3 57.1 42.7 C 57.1 44.3 57.8 45.4 59.1 46.2 C 57.6 47.1 56.8 48.4 56.8 50.1 C 56.8 51.5 57.3 52.7 58.2 53.6 C 59.2 54.5 60.4 54.9 61.8 54.9 C 63.2 54.9 64.5 54.5 65.4 53.6 C 66.4 52.7 66.9 51.6 66.9 50.1 C 67 48.4 66.2 47.1 64.7 46.2 Z M 60.1 40.9 C 60.6 40.4 61.1 40.2 61.8 40.2 C 62.5 40.2 63.1 40.4 63.6 40.9 C 64.1 41.4 64.3 42 64.3 42.7 C 64.3 43.4 64.1 44 63.6 44.5 C 63.1 45 62.6 45.2 61.8 45.2 C 61 45.2 60.5 45 60.1 44.5 C 59.6 44 59.4 43.4 59.4 42.7 C 59.4 42 59.7 41.4 60.1 40.9 Z M 63.8 51.9 C 63.3 52.4 62.6 52.7 61.9 52.7 C 61.2 52.7 60.5 52.4 60 51.9 C 59.5 51.4 59.2 50.7 59.2 50 C 59.2 49.2 59.5 48.6 60 48 C 60.5 47.5 61.2 47.2 61.9 47.2 C 62.6 47.2 63.3 47.5 63.8 48 C 64.3 48.5 64.6 49.2 64.6 50 C 64.6 50.8 64.3 51.4 63.8 51.9 Z"></path>
	<line style="fill: rgb(216, 216, 216); stroke: rgb(0, 0, 0); stroke-linejoin: round; stroke-linecap: round; stroke-width: 4px;" x1="45.304" y1="64.325" x2="54.381" y2="64.325"></line>
	<line style="fill: rgb(216, 216, 216); stroke: rgb(0, 0, 0); stroke-linejoin: round; stroke-linecap: round; stroke-width: 4px;" x1="30.624" y1="64.325" x2="39.701" y2="64.325"></line>
	<line style="fill: rgb(216, 216, 216); stroke: rgb(0, 0, 0); stroke-linejoin: round; stroke-linecap: round; stroke-width: 4px;" x1="60.3" y1="64.325" x2="69.377" y2="64.325"></line>
  </g>
</svg>